<svg xmlns="http://www.w3.org/2000/svg" width="613" height="75"><defs><linearGradient id="a" x1="14.507%" x2="96.906%" y1="0%" y2="76.243%"><stop offset="0%" stop-color="#F09819"/><stop offset="47.706%" stop-color="#FA6C44"/><stop offset="100%" stop-color="#FF5858"/></linearGradient></defs><path fill="url(#a)" fill-rule="evenodd" d="M612.536 0l-28.334 30.068 28.334 30.07h-22.358l-21.974-22.842h-16.66v22.841h-16.962V0h16.962v23.322h16.082L590.178 0h22.358zm-92.264 36.478c-1.51.932-3.213 1.607-5.108 2.024a26.553 26.553 0 0 1-5.734.626l23.033 21.01h-23.708l-23.515-21.01h-10.697v21.01h-17.059v-35.08h49.247c.514-.193.868-.386 1.061-.578.192-.193.351-.386.481-.58v-8.865c-.322-.706-.836-1.092-1.542-1.157h-49.247V0h59.367c.9 0 1.846.273 2.842.818a12.16 12.16 0 0 1 2.747 2.073 12.184 12.184 0 0 1 2.073 2.746c.545.997.82 1.944.82 2.843v19.083c0 2.056-.468 3.823-1.398 5.3a11.256 11.256 0 0 1-3.663 3.614zM401.878 0h16.96l31.9 60.137h-18.117l-4.626-8.095-17.637-33.554-22.165 41.649h-18.215L401.878 0zM372.29 8.48v19.082c0 2.057-.307 3.823-.916 5.3-.61 1.48-1.43 2.667-2.457 3.566a9.744 9.744 0 0 1-3.518 1.976c-1.318.418-2.65.626-4 .626h-42.115v21.106h-17.058v-35.08h51.56l1.543-1.157v-8.866l-1.543-1.157h-51.56V0h61.584c.962 0 1.941.274 2.94.82a11.254 11.254 0 0 1 2.696 2.071 12.958 12.958 0 0 1 2.026 2.747c.545.997.818 1.944.818 2.843zm-146.489-5.59a12.14 12.14 0 0 1 2.747-2.072c.996-.545 1.943-.819 2.843-.819h61.583v13.878h-51.56l-1.542.771v7.42l1.35 1.061h40.863c1.348 0 2.681.192 4 .578a9.217 9.217 0 0 1 3.516 1.927c1.027.901 1.847 2.058 2.458 3.47.61 1.414.915 3.18.915 5.3v17.251c0 .901-.274 1.848-.819 2.844a12.893 12.893 0 0 1-2.024 2.746 11.163 11.163 0 0 1-2.699 2.072c-.996.547-1.974.819-2.939.819H222.91V46.259h51.464l1.542-1.156v-7.035l-1.253-1.061H233.8c-1.349 0-2.683-.192-3.999-.578a9.186 9.186 0 0 1-3.518-1.927c-1.028-.899-1.847-2.056-2.457-3.47-.61-1.412-.916-3.18-.916-5.3V8.481c0-.899.273-1.846.82-2.843a12.092 12.092 0 0 1 2.071-2.747zm190.365 60.042l-6.406 11.156-6.406-11.156L401.02 67 397 60H421.482l-3.5 6.096-1.816-3.163zM151.21 13.878V0h62.45v13.877h-23.033v46.26h-16.962v-46.26H151.21zm-116.082 0V0h35.129v49.343c0 1.928-.386 3.566-1.157 4.915a10.282 10.282 0 0 1-2.987 3.325c-1.222.867-2.635 1.51-4.241 1.927a19.022 19.022 0 0 1-4.819.627H13.107c-1.542 0-3.101-.225-4.674-.675a13.014 13.014 0 0 1-4.241-2.072 11.052 11.052 0 0 1-3.036-3.421C.385 52.62 0 51.079 0 49.344V39.32h17.058v6.939h36.14V13.878h-18.07zm44.38 46.26V0h62.45v13.877H96.47v9.445h23.901V37.2h-23.9v9.06h45.487v13.877h-62.45z"/></svg>